        <svg class="christoffer-gylin-logo" data-name="Layer 1" xmlns="http://www.w3.org/2000/svg" viewBox="0 0 1125.001 120.094">
            <path d="M24.505,87.479c-5.918-3.311-10.562-7.901-13.927-13.77-3.367-5.868-5.05-12.437-5.05-19.71s1.683-13.841,5.05-19.71c3.366-5.868,8.027-10.458,13.98-13.77,5.954-3.311,12.615-4.968,19.987-4.968,5.528,0,10.632,.937,15.31,2.808,4.678,1.873,8.646,4.608,11.907,8.208l-4.997,5.076c-5.812-5.976-13.148-8.964-22.007-8.964-5.884,0-11.234,1.369-16.054,4.104-4.82,2.737-8.595,6.48-11.322,11.232-2.729,4.752-4.093,10.082-4.093,15.984s1.364,11.232,4.093,15.984c2.728,4.752,6.502,8.497,11.322,11.232,4.819,2.737,10.17,4.104,16.054,4.104,8.93,0,16.266-3.024,22.007-9.072l4.997,5.076c-3.261,3.601-7.248,6.355-11.96,8.262-4.714,1.908-9.834,2.862-15.362,2.862-7.373,0-14.017-1.655-19.934-4.968Z" />
            <path d="M150.753,16.199V91.799h-7.761V56.915h-46.566v34.884h-7.867V16.199h7.867V49.895h46.566V16.199h7.761Z" />
            <path d="M225.81,91.799l-17.01-24.3c-1.914,.216-3.899,.324-5.954,.324h-19.987v23.976h-7.867V16.199h27.854c9.497,0,16.939,2.305,22.326,6.912,5.385,4.608,8.08,10.945,8.08,19.008,0,5.905-1.472,10.891-4.412,14.958-2.942,4.069-7.141,7.003-12.598,8.802l18.18,25.92h-8.611Zm-6.272-35.748c3.897-3.311,5.847-7.955,5.847-13.932,0-6.119-1.95-10.817-5.847-14.094-3.899-3.275-9.534-4.914-16.904-4.914h-19.775V61.019h19.775c7.37,0,13.005-1.656,16.904-4.968Z" />
            <path d="M251.855,16.199h7.867V91.799h-7.867V16.199Z" />
            <path d="M288.585,89.747c-5.068-1.799-8.984-4.175-11.748-7.128l3.083-6.156c2.692,2.737,6.272,4.951,10.737,6.642,4.465,1.692,9.072,2.538,13.821,2.538,6.661,0,11.658-1.242,14.99-3.726,3.331-2.484,4.997-5.706,4.997-9.666,0-3.024-.904-5.436-2.711-7.236-1.808-1.799-4.023-3.186-6.645-4.158-2.623-.972-6.273-2.034-10.951-3.186-5.6-1.439-10.065-2.825-13.396-4.158-3.332-1.332-6.185-3.365-8.558-6.102-2.375-2.735-3.562-6.443-3.562-11.124,0-3.815,.992-7.29,2.977-10.422,1.983-3.132,5.032-5.633,9.143-7.506,4.11-1.872,9.213-2.808,15.309-2.808,4.253,0,8.416,.594,12.492,1.782,4.075,1.188,7.602,2.826,10.578,4.914l-2.658,6.372c-3.12-2.087-6.45-3.653-9.994-4.698-3.545-1.043-7.017-1.566-10.419-1.566-6.521,0-11.429,1.279-14.724,3.834-3.296,2.557-4.944,5.851-4.944,9.882,0,3.024,.904,5.454,2.711,7.29,1.808,1.836,4.075,3.24,6.804,4.212,2.728,.972,6.396,2.035,11.003,3.186,5.457,1.369,9.869,2.719,13.236,4.05,3.365,1.333,6.219,3.348,8.558,6.048,2.339,2.7,3.508,6.355,3.508,10.962,0,3.817-1.01,7.29-3.03,10.422-2.02,3.132-5.121,5.616-9.302,7.452-4.183,1.836-9.321,2.754-15.416,2.754-5.529,0-10.828-.899-15.894-2.7Z" />
            <path d="M362.739,23.111h-26.153v-6.912h60.174v6.912h-26.153V91.799h-7.867V23.111Z" />
            <path d="M420.733,87.425c-5.99-3.348-10.668-7.938-14.034-13.77-3.367-5.832-5.05-12.383-5.05-19.656s1.683-13.824,5.05-19.656c3.366-5.832,8.043-10.422,14.034-13.77,5.988-3.348,12.668-5.022,20.04-5.022s14.015,1.657,19.934,4.968c5.917,3.312,10.578,7.902,13.98,13.77,3.402,5.869,5.104,12.438,5.104,19.71s-1.701,13.842-5.104,19.71c-3.402,5.869-8.063,10.459-13.98,13.77-5.919,3.312-12.563,4.968-19.934,4.968s-14.052-1.674-20.04-5.022Zm35.987-6.156c4.748-2.7,8.468-6.443,11.163-11.232,2.692-4.787,4.04-10.133,4.04-16.038s-1.347-11.249-4.04-16.038c-2.695-4.788-6.416-8.532-11.163-11.232-4.75-2.7-10.065-4.05-15.947-4.05s-11.216,1.35-16,4.05c-4.784,2.7-8.542,6.444-11.27,11.232-2.729,4.789-4.093,10.135-4.093,16.038s1.364,11.25,4.093,16.038c2.728,4.79,6.485,8.532,11.27,11.232,4.784,2.7,10.116,4.05,16,4.05s11.198-1.35,15.947-4.05Z" />
            <path d="M505.305,23.111v29.7h38.486v6.912h-38.486v32.076h-7.867V16.199h51.031v6.912h-43.164Z" />
            <path d="M572.601,23.111v29.7h38.486v6.912h-38.486v32.076h-7.867V16.199h51.031v6.912h-43.164Z" />
            <path d="M684.655,84.887v6.912h-52.625V16.199h51.031v6.912h-43.164v26.892h38.486v6.804h-38.486v28.08h44.758Z" />
            <path d="M753.972,91.799l-17.01-24.3c-1.914,.216-3.899,.324-5.954,.324h-19.987v23.976h-7.867V16.199h27.854c9.497,0,16.938,2.305,22.326,6.912,5.386,4.608,8.079,10.945,8.079,19.008,0,5.905-1.471,10.891-4.412,14.958-2.941,4.069-7.141,7.003-12.598,8.802l18.18,25.92h-8.611Zm-6.272-35.748c3.897-3.311,5.847-7.955,5.847-13.932,0-6.119-1.949-10.817-5.847-14.094-3.899-3.275-9.534-4.914-16.903-4.914h-19.775V61.019h19.775c7.369,0,13.004-1.656,16.903-4.968Z" />
            <path d="M860.284,53.999h7.549v28.836c-3.475,3.096-7.586,5.473-12.333,7.128-4.749,1.657-9.746,2.484-14.99,2.484-7.442,0-14.14-1.655-20.093-4.968-5.954-3.311-10.632-7.901-14.034-13.77-3.401-5.868-5.103-12.437-5.103-19.71s1.701-13.841,5.103-19.71c3.402-5.868,8.08-10.458,14.034-13.77,5.953-3.311,12.686-4.968,20.199-4.968,5.67,0,10.879,.918,15.628,2.754,4.747,1.836,8.753,4.555,12.014,8.154l-4.891,5.076c-5.884-5.903-13.36-8.856-22.433-8.856-6.024,0-11.465,1.35-16.318,4.05-4.855,2.7-8.665,6.444-11.43,11.232-2.764,4.789-4.146,10.135-4.146,16.038s1.383,11.232,4.146,15.984c2.765,4.752,6.555,8.497,11.376,11.232,4.819,2.737,10.241,4.104,16.267,4.104,7.654,0,14.139-1.944,19.455-5.832v-25.488Z" />
            <path d="M915.567,65.663v26.136h-7.762v-26.136l-29.768-49.464h8.398l25.516,42.444,25.516-42.444h7.867l-29.768,49.464Z" />
            <path d="M955.966,16.199h7.867V84.887h41.676v6.912h-49.543V16.199Z" />
            <path d="M1018.583,16.199h7.867V91.799h-7.867V16.199Z" />
            <path d="M1112.883,16.199V91.799h-6.485l-47.842-61.344v61.344h-7.867V16.199h6.486l47.947,61.344V16.199h7.761Z" />
          </svg>