<?xml version="1.0" encoding="UTF-8"?>
<svg id="Layer_1" data-name="Layer 1" xmlns="http://www.w3.org/2000/svg" viewBox="0 0 1125 119.77">
  <defs>
    <style>
      .cls-1 {
        fill: #f6f8ff;
      }
    </style>
  </defs>
  <path class="cls-1" d="M44.44,92.45c-5.6,0-10.77-.95-15.52-2.86-4.75-1.91-8.86-4.59-12.33-8.05-3.47-3.46-6.18-7.52-8.13-12.2-1.95-4.68-2.92-9.79-2.92-15.34s.97-10.66,2.92-15.34c1.95-4.68,4.68-8.75,8.19-12.2s7.64-6.14,12.39-8.05c4.75-1.91,9.92-2.86,15.52-2.86s10.45,.92,15.2,2.75c4.75,1.84,8.75,4.59,12.01,8.26l-5,5.08c-3.05-3.17-6.42-5.45-10.1-6.86-3.69-1.4-7.65-2.11-11.91-2.11-4.47,0-8.61,.77-12.44,2.32-3.83,1.55-7.16,3.74-9.99,6.59-2.84,2.85-5.05,6.16-6.65,9.94-1.59,3.78-2.39,7.94-2.39,12.47s.8,8.69,2.39,12.47c1.59,3.78,3.81,7.09,6.65,9.94,2.83,2.85,6.17,5.04,9.99,6.59,3.83,1.55,7.97,2.32,12.44,2.32s8.22-.72,11.91-2.16c3.68-1.44,7.05-3.74,10.1-6.91l5,5.08c-3.26,3.67-7.27,6.44-12.01,8.32-4.75,1.87-9.85,2.81-15.31,2.81Z"/>
  <path class="cls-1" d="M96.43,91.8h-7.87V16.2h7.87V91.8Zm47.31-34.88h-48.16v-7.02h48.16v7.02Zm-.74-40.72h7.76V91.8h-7.76V16.2Z"/>
  <path class="cls-1" d="M174.99,91.8V16.2h27.85c6.31,0,11.73,1.03,16.27,3.08,4.53,2.05,8.03,5,10.47,8.86,2.45,3.85,3.67,8.52,3.67,13.99s-1.22,9.92-3.67,13.77c-2.45,3.85-5.94,6.8-10.47,8.86-4.54,2.05-9.96,3.08-16.27,3.08h-23.5l3.51-3.67v27.65h-7.87Zm7.87-27l-3.51-3.78h23.28c7.44,0,13.09-1.66,16.96-4.97,3.86-3.31,5.79-7.95,5.79-13.93s-1.93-10.73-5.79-14.04c-3.86-3.31-9.52-4.97-16.96-4.97h-23.28l3.51-3.78v45.47Zm42.95,27l-19.14-27.43h8.51l19.24,27.43h-8.61Z"/>
  <path class="cls-1" d="M251.85,91.8V16.2h7.87V91.8h-7.87Z"/>
  <path class="cls-1" d="M304.48,92.45c-5.53,0-10.83-.92-15.89-2.75-5.07-1.84-8.98-4.19-11.75-7.07l3.08-6.16c2.62,2.59,6.15,4.77,10.58,6.53,4.43,1.76,9.09,2.65,13.98,2.65s8.49-.59,11.43-1.78c2.94-1.19,5.1-2.79,6.48-4.81,1.38-2.01,2.07-4.25,2.07-6.7,0-2.95-.83-5.33-2.5-7.13-1.67-1.8-3.85-3.22-6.54-4.27-2.69-1.04-5.67-1.96-8.93-2.75-3.26-.79-6.52-1.64-9.78-2.54-3.26-.9-6.26-2.11-8.98-3.62-2.73-1.51-4.93-3.51-6.59-5.99-1.67-2.48-2.5-5.74-2.5-9.77,0-3.74,.97-7.18,2.92-10.31,1.95-3.13,4.94-5.65,8.98-7.56,4.04-1.91,9.21-2.86,15.52-2.86,4.18,0,8.33,.59,12.44,1.78,4.11,1.19,7.65,2.83,10.63,4.91l-2.66,6.37c-3.19-2.16-6.58-3.74-10.15-4.75-3.58-1.01-7.03-1.51-10.37-1.51-4.47,0-8.15,.61-11.06,1.84-2.91,1.23-5.05,2.86-6.43,4.91-1.38,2.05-2.07,4.37-2.07,6.97,0,2.95,.83,5.33,2.5,7.13,1.66,1.8,3.86,3.2,6.59,4.21,2.73,1.01,5.72,1.91,8.98,2.7,3.26,.79,6.5,1.66,9.73,2.59,3.22,.94,6.2,2.14,8.93,3.62,2.73,1.48,4.93,3.44,6.59,5.89,1.66,2.45,2.5,5.65,2.5,9.61,0,3.67-.99,7.07-2.98,10.21-1.99,3.13-5.02,5.65-9.09,7.56-4.08,1.91-9.3,2.86-15.68,2.86Z"/>
  <path class="cls-1" d="M362.74,91.8V23.11h-26.15v-6.91h60.17v6.91h-26.15V91.8h-7.87Z"/>
  <path class="cls-1" d="M440.77,92.45c-5.6,0-10.79-.95-15.58-2.86-4.78-1.91-8.93-4.61-12.44-8.1-3.51-3.49-6.24-7.56-8.19-12.2-1.95-4.64-2.92-9.74-2.92-15.28s.97-10.64,2.92-15.28c1.95-4.64,4.68-8.71,8.19-12.2,3.51-3.49,7.64-6.19,12.39-8.1,4.75-1.91,9.96-2.86,15.63-2.86s10.77,.96,15.52,2.86c4.75,1.91,8.88,4.59,12.39,8.05,3.51,3.46,6.24,7.52,8.19,12.2,1.95,4.68,2.92,9.79,2.92,15.34s-.98,10.66-2.92,15.34c-1.95,4.68-4.68,8.75-8.19,12.2-3.51,3.46-7.64,6.14-12.39,8.05-4.75,1.91-9.92,2.86-15.52,2.86Zm0-7.13c4.47,0,8.59-.77,12.39-2.32,3.79-1.55,7.09-3.74,9.89-6.59,2.8-2.84,4.98-6.16,6.54-9.94,1.56-3.78,2.34-7.94,2.34-12.47s-.78-8.69-2.34-12.47c-1.56-3.78-3.74-7.09-6.54-9.94-2.8-2.84-6.1-5.04-9.89-6.59-3.79-1.55-7.92-2.32-12.39-2.32s-8.61,.77-12.44,2.32c-3.83,1.55-7.16,3.74-9.99,6.59-2.84,2.85-5.03,6.16-6.59,9.94-1.56,3.78-2.34,7.94-2.34,12.47s.78,8.6,2.34,12.42c1.56,3.82,3.76,7.15,6.59,9.99,2.83,2.85,6.17,5.04,9.99,6.59,3.83,1.55,7.97,2.32,12.44,2.32Z"/>
  <path class="cls-1" d="M505.3,91.8h-7.87V16.2h51.03v6.91h-43.16V91.8Zm-.85-38.99h39.34v6.91h-39.34v-6.91Z"/>
  <path class="cls-1" d="M572.6,91.8h-7.87V16.2h51.03v6.91h-43.16V91.8Zm-.85-38.99h39.34v6.91h-39.34v-6.91Z"/>
  <path class="cls-1" d="M639.9,84.89h44.76v6.91h-52.63V16.2h51.03v6.91h-43.16v61.78Zm-.85-34.88h39.34v6.8h-39.34v-6.8Z"/>
  <path class="cls-1" d="M703.15,91.8V16.2h27.85c6.31,0,11.73,1.03,16.27,3.08,4.53,2.05,8.03,5,10.47,8.86,2.45,3.85,3.67,8.52,3.67,13.99s-1.22,9.92-3.67,13.77c-2.45,3.85-5.94,6.8-10.47,8.86-4.54,2.05-9.96,3.08-16.27,3.08h-23.5l3.51-3.67v27.65h-7.87Zm7.87-27l-3.51-3.78h23.28c7.44,0,13.09-1.66,16.96-4.97,3.86-3.31,5.79-7.95,5.79-13.93s-1.93-10.73-5.79-14.04c-3.86-3.31-9.51-4.97-16.96-4.97h-23.28l3.51-3.78v45.47Zm42.95,27l-19.14-27.43h8.5l19.24,27.43h-8.61Z"/>
  <path class="cls-1" d="M840.51,92.45c-5.67,0-10.9-.95-15.68-2.86-4.78-1.91-8.93-4.59-12.44-8.05-3.51-3.46-6.24-7.52-8.19-12.2-1.95-4.68-2.92-9.79-2.92-15.34s.97-10.66,2.92-15.34c1.95-4.68,4.69-8.75,8.24-12.2,3.54-3.46,7.71-6.14,12.49-8.05,4.78-1.91,10.01-2.86,15.68-2.86s10.86,.9,15.58,2.7c4.71,1.8,8.73,4.54,12.07,8.21l-4.89,5.08c-3.12-3.17-6.56-5.44-10.31-6.8-3.76-1.37-7.8-2.05-12.12-2.05-4.61,0-8.84,.77-12.71,2.32-3.86,1.55-7.23,3.74-10.1,6.59-2.87,2.85-5.1,6.16-6.7,9.94-1.6,3.78-2.39,7.94-2.39,12.47s.8,8.6,2.39,12.42c1.59,3.82,3.83,7.15,6.7,9.99,2.87,2.85,6.24,5.04,10.1,6.59,3.86,1.55,8.06,2.32,12.6,2.32,4.25,0,8.27-.65,12.07-1.94,3.79-1.3,7.28-3.49,10.47-6.59l4.47,6.05c-3.54,3.17-7.69,5.56-12.44,7.18-4.75,1.62-9.71,2.43-14.88,2.43Zm19.78-10.58v-27.86h7.55v28.84l-7.55-.97Z"/>
  <path class="cls-1" d="M907.81,91.8v-28.08l1.81,4.97-31.57-52.49h8.4l27.75,46.12h-4.46l27.75-46.12h7.87l-31.58,52.49,1.81-4.97v28.08h-7.76Z"/>
  <path class="cls-1" d="M955.96,91.8V16.2h7.87V84.89h41.67v6.91h-49.54Z"/>
  <path class="cls-1" d="M1018.58,91.8V16.2h7.87V91.8h-7.87Z"/>
  <path class="cls-1" d="M1050.69,91.8V16.2h6.48l51.35,65.66h-3.4V16.2h7.76V91.8h-6.49l-51.24-65.66h3.4V91.8h-7.87Z"/>
</svg>